<svg xmlns="http://www.w3.org/2000/svg" viewBox="0 0 10 10" shape-rendering="crispEdges">
  <!-- Row 1 -->
  <rect x="3" y="0" width="4" height="1" fill="#DAA520" />

  <!-- Row 2 -->
  <rect x="2" y="1" width="1" height="1" fill="#DAA520" />
  <rect x="3" y="1" width="4" height="1" fill="#FFD700" />
  <rect x="7" y="1" width="1" height="1" fill="#DAA520" />

  <!-- Row 3 -->
  <rect x="1" y="2" width="1" height="1" fill="#DAA520" />
  <rect x="2" y="2" width="1" height="1" fill="#FFD700" />
  <rect x="3" y="2" width="2" height="1" fill="#FFFFFF" />
  <rect x="5" y="2" width="3" height="1" fill="#FFD700" />
  <rect x="8" y="2" width="1" height="1" fill="#DAA520" />

  <!-- Row 4 (Symbol Top) -->
  <rect x="1" y="3" width="1" height="1" fill="#DAA520" />
  <rect x="2" y="3" width="1" height="1" fill="#FFD700" />
  <rect x="3" y="3" width="1" height="1" fill="#FFFFFF" />
  <rect x="4" y="3" width="3" height="1" fill="#000000" />
  <rect x="7" y="3" width="1" height="1" fill="#FFD700" />
  <rect x="8" y="3" width="1" height="1" fill="#DAA520" />

  <!-- Row 5 (Symbol Middle 1) -->
  <rect x="1" y="4" width="1" height="1" fill="#DAA520" />
  <rect x="2" y="4" width="2" height="1" fill="#FFD700" />
  <rect x="4" y="4" width="1" height="1" fill="#000000" />
  <rect x="5" y="4" width="3" height="1" fill="#FFD700" />
  <rect x="8" y="4" width="1" height="1" fill="#DAA520" />

  <!-- Row 6 (Symbol Middle 2) -->
  <rect x="1" y="5" width="1" height="1" fill="#DAA520" />
  <rect x="2" y="5" width="2" height="1" fill="#FFD700" />
  <rect x="4" y="5" width="1" height="1" fill="#000000" />
  <rect x="5" y="5" width="3" height="1" fill="#FFD700" />
  <rect x="8" y="5" width="1" height="1" fill="#DAA520" />

  <!-- Row 7 (Symbol Bottom) -->
  <rect x="1" y="6" width="1" height="1" fill="#DAA520" />
  <rect x="2" y="6" width="2" height="1" fill="#FFD700" />
  <rect x="4" y="6" width="3" height="1" fill="#000000" />
  <rect x="7" y="6" width="1" height="1" fill="#FFD700" />
  <rect x="8" y="6" width="1" height="1" fill="#DAA520" />

  <!-- Row 8 -->
  <rect x="1" y="7" width="1" height="1" fill="#DAA520" />
  <rect x="2" y="7" width="6" height="1" fill="#FFD700" />
  <rect x="8" y="7" width="1" height="1" fill="#DAA520" />

  <!-- Row 9 -->
  <rect x="2" y="8" width="1" height="1" fill="#DAA520" />
  <rect x="3" y="8" width="4" height="1" fill="#FFD700" />
  <rect x="7" y="8" width="1" height="1" fill="#DAA520" />

  <!-- Row 10 -->
  <rect x="3" y="9" width="4" height="1" fill="#DAA520" />
</svg>
